Coordinates
version=1
nRows=9
nColumns=36
inDegrees=yes

Units are S.I. units (second, meters, Newtons, ...)
If the header above contains a line with 'inDegrees', this indicates whether rotational values are in degrees (yes) or radians (no).

endheader
time	pelvis_tilt	pelvis_list	pelvis_rotation	pelvis_tx	pelvis_ty	pelvis_tz	hip_flexion_r	hip_adduction_r	hip_rotation_r	knee_angle_r	knee_angle_r_beta	ankle_angle_r	subtalar_angle_r	mtp_angle_r	hip_flexion_l	hip_adduction_l	hip_rotation_l	knee_angle_l	knee_angle_l_beta	ankle_angle_l	subtalar_angle_l	mtp_angle_l	lumbar_extension	lumbar_bending	lumbar_rotation	arm_flex_r	arm_add_r	arm_rot_r	elbow_flex_r	pro_sup_r	arm_flex_l	arm_add_l	arm_rot_l	elbow_flex_l	pro_sup_l
     14.98333330	      3.25349234	      2.18919901	     -2.29790531	      0.61103746	      1.03952714	      0.68803945	     11.25314463	     -4.02125296	      7.86744448	     61.36876212	      1.07108696	     -8.57582129	    -20.89201313	     -7.49999987	     11.72866058	      3.59382074	      0.30670842	     17.64877067	      0.30802916	      1.27868132	     -5.98197145	     -7.49999987	    -16.98607799	     -6.03644139	      4.63731582	      2.72460896	    -14.45448450	      1.32803046	     41.24893673	     77.27314855	      6.86742165	    -11.38004148	     16.99146008	     15.74209719	     86.73681125
     15.00000000	      3.49305297	      1.96961069	     -2.42352971	      0.60846705	      1.04040535	      0.68680750	     13.00068975	     -3.49422643	      7.83049921	     63.47432194	      1.10783591	     -7.67331489	    -20.00544777	     -7.49999987	     10.23347368	      3.49398558	      0.53290989	     17.53687106	      0.30607614	      1.97128262	     -6.57668788	     -7.49999987	    -17.25093552	     -5.92270386	      4.83204466	      2.30948834	    -13.88927937	      0.54611371	     38.93551072	     79.85479794	      8.57071800	    -11.62206828	     19.22687938	     16.10337288	     87.85896272
     15.01666670	      3.71385566	      1.64911491	     -2.42357764	      0.60517165	      1.03954867	      0.68481964	     14.42941361	     -2.87970662	      7.64427260	     64.85345526	      1.13190633	     -6.74896899	    -19.40500058	     -7.49999987	      8.85366529	      3.29374734	      0.84986063	     17.52270884	      0.30582896	      2.96699531	     -6.92090900	     -7.49999987	    -17.62142294	     -5.59630433	      4.86290326	      1.63098385	    -13.62864151	      0.53751408	     37.79657034	     79.89865245	     10.04208331	    -11.75753915	     19.16167625	     16.98340111	     87.76166922
     15.03333330	      3.89332968	      1.29690276	     -2.43792362	      0.60289575	      1.03791650	      0.68310323	     15.70185360	     -2.27947357	      7.38954029	     65.59820322	      1.14490463	     -5.19169696	    -18.02575199	     -7.49999987	      7.40524629	      3.06215870	      1.15420721	     17.25784279	      0.30120618	      3.93148985	     -7.01816713	     -7.49999987	    -17.86829012	     -5.16775181	      5.02578649	      1.03197563	    -13.38208295	      0.33334399	     36.13900278	     80.00650736	     11.61396433	    -11.84720649	     19.29009186	     17.88673029	     87.75041958
     15.05000000	      4.16443941	      0.94868850	     -2.35586855	      0.60201766	      1.03629631	      0.68208395	     16.75390865	     -1.69173572	      7.10604139	     65.75346511	      1.14761446	     -3.67988018	    -17.17937605	     -7.49999987	      5.79893395	      2.86622281	      1.68307326	     16.94818332	      0.29580160	      4.93630843	     -7.30405230	     -7.49999987	    -18.19048408	     -4.64327964	      4.83618126	      0.49369632	    -13.12377725	      0.05450395	     34.68293691	     79.46259208	     12.87845455	    -12.06197834	     19.17535177	     19.26431068	     86.88971963
     15.06666670	      4.21099592	      0.67820129	     -2.25850383	      0.60187517	      1.03574149	      0.68168518	     18.01392941	     -1.23407190	      6.81247486	     65.19595655	      1.13788410	     -1.68741982	    -16.32097004	     -7.49999987	      4.38211273	      2.64280663	      1.74923172	     16.70198156	      0.29150457	      6.41995005	     -6.53765476	     -7.49999987	    -18.12023869	     -4.21241604	      4.92690619	     -0.32300701	    -12.97621326	     -0.35260407	     33.03410304	     79.72552785	     14.47882733	    -12.18035278	     20.17560658	     19.98284940	     86.53892248
     15.08333330	      4.45071215	      0.34144193	     -2.06963886	      0.60137276	      1.03796242	      0.68131114	     18.90273689	     -0.83724802	      6.31932388	     63.54896963	      1.10913876	      0.32950450	    -15.99668733	     -7.49999987	      2.66997856	      2.36551112	      2.10408088	     16.38528741	      0.28597721	      7.64754331	     -6.28440715	     -7.49999987	    -18.44380288	     -3.65546382	      5.45133235	     -1.77979109	    -12.81270271	     -2.58148769	     32.46448663	     81.68405535	     16.34235943	    -12.24799197	     21.92620149	     21.08303586	     85.89048672
     15.10000000	      4.58409538	     -0.01118955	     -1.90846206	      0.60072355	      1.04103004	      0.68092307	     19.69189771	     -0.54057382	      5.66358796	     60.77455794	      1.06071614	      2.33979151	    -15.68008572	     -7.49999987	      1.00973800	      2.01869081	      2.40869021	     15.98192292	      0.27893718	      8.80789494	     -5.81757249	     -7.49999987	    -18.64422406	     -3.00473381	      5.35025800	     -2.56022705	    -12.84718409	     -2.89709893	     31.25928400	     81.13891749	     17.30251403	    -12.45240241	     21.21240919	     22.99000223	     84.80235326
     15.11666670	      4.71444841	     -0.34921664	     -1.79666024	      0.60020857	      1.04209351	      0.68037957	     20.26274950	     -0.35101833	      4.89049519	     57.02847193	      0.99533460	      3.94967184	    -15.37535704	     -7.49999987	     -0.75170936	      1.66548016	      2.73051052	     15.37980397	      0.26842822	      9.81738806	     -5.28712167	     -7.49999987	    -18.86145261	     -2.37556725	      5.42624759	     -3.59003981	    -12.82559823	     -3.44608957	     30.33731158	     80.59924662	     18.18390602	    -12.65461714	     20.34605914	     25.00117884	     83.68890145
